<svg height="200px" width="200px" version="1.1" id="_x32_" xmlns="http://www.w3.org/2000/svg" xmlns:xlink="http://www.w3.org/1999/xlink" viewBox="0 0 512 512" xml:space="preserve" fill="#000000"><g id="SVGRepo_bgCarrier" stroke-width="0"></g><g id="SVGRepo_tracerCarrier" stroke-linecap="round" stroke-linejoin="round"></g><g id="SVGRepo_iconCarrier"> <style type="text/css"> .st0{fill:#000000;} </style> <g> <path class="st0" d="M430.209,409.109c-11.731-17.668-29.573-27.486-46.372-33.835c-8.429-3.174-16.676-5.499-23.952-7.45 c-7.269-1.944-13.611-3.548-17.932-5.074c-6.49-2.272-13.077-5.505-17.552-9.137c-2.24-1.802-3.934-3.676-4.97-5.408 c-0.522-0.882-0.895-1.706-1.14-2.524c4.842-5.145,10.74-9.426,17.448-13.65c11.403-7.243,24.944-14.306,36.289-26.978 c11.377-12.665,19.812-30.867,21.628-58.354c1.12-16.348,5.222-28.498,9.336-40.416c4.082-11.853,8.338-23.655,8.351-38.104 c0.006-11.39-2.704-24.08-9.529-39.231c-3.413-7.604-4.983-13.984-6.117-20.301c-1.706-9.394-2.209-19.065-6.568-30.487 c-4.365-11.409-12.497-23.862-28.426-39.347c-9.13-8.866-21.931-18.408-36.81-25.897C309.026,5.454,292.06,0.02,274.637,0 c-16.007-0.045-32.458,4.906-46.739,16.876c-1.094-0.045-2.176-0.135-3.271-0.135c-13.74,0.006-27.918,3.567-40.293,10.56 c-12.35,6.98-22.961,17.539-28.782,31.498c-2.401,5.776-5.788,10.94-9.87,16.38c-6.097,8.144-13.792,16.811-20.752,28.581 c-6.961,11.777-13.012,26.644-16.013,46.874c-0.843,5.621-1.204,11.12-1.204,16.515c0.007,16.329,3.316,31.602,6.973,46.752 c3.664,15.17,7.688,30.249,9.594,46.346c2.009,16.972,6.291,28.91,12.395,37.706c4.552,6.593,10.063,11.222,15.601,14.744 c8.344,5.286,16.605,8.409,23.726,12.91c6.716,4.256,12.633,9.458,17.861,19.072c-0.2,1.152-0.554,2.292-1.288,3.528 c-1.539,2.608-4.63,5.505-8.686,8.048c-4.044,2.556-8.975,4.784-13.843,6.497c-5.769,2.047-15.074,4.179-25.497,7.166 c-15.666,4.533-34.184,11.056-49.25,23.978c-7.521,6.458-14.127,14.571-18.769,24.654c-4.649,10.076-7.315,22.052-7.308,36.063 c0,3.252,0.142,6.612,0.431,10.09c0.219,2.44,1.146,4.417,2.228,6.052c2.08,3.046,4.829,5.306,8.274,7.63 c6.033,3.992,14.39,7.894,25.092,11.725c32.026,11.422,85.054,21.879,150.756,21.892c53.383,0,98.442-6.928,130.603-15.633 c0.212-0.058,0.386-0.116,0.598-0.174l2.434-0.238l0.116-0.508c14.571-4.115,26.424-8.544,35.072-12.987 c1.764-0.914,3.284-1.828,4.797-2.743h0.2c0-0.038,0-0.071,0-0.116c2.396-1.461,4.591-2.948,6.394-4.52 c1.494-1.313,2.801-2.691,3.902-4.327c1.088-1.635,2.016-3.612,2.228-6.052c0.29-3.483,0.431-6.838,0.431-10.09 C442.803,435.933,438.019,420.86,430.209,409.109z M186.594,315.214c-5.801-3.998-11.583-6.766-16.812-9.4 c-7.913-3.972-14.352-7.54-19.496-13.875c-5.138-6.336-9.517-16.014-11.596-33.405c-2.073-17.404-6.31-33.12-9.909-48.039 c-3.612-14.925-6.574-29.026-6.561-43.346c0-4.745,0.315-9.516,1.043-14.371c3.728-24.673,11.783-39.122,20.552-51.374 c4.404-6.116,9.052-11.648,13.469-17.52c4.398-5.859,8.57-12.098,11.661-19.509c4.378-10.514,12.484-18.756,22.536-24.454 c10.025-5.685,21.936-8.686,33.146-8.679c0.128,0,0.251,0.013,0.38,0.013c-0.573,1.127-1.159,2.259-1.681,3.354 c-1.628,3.393-3.006,6.58-4.069,9.323c-1.062,2.763-1.809,4.99-2.196,6.877l9.053,1.803c0.161-0.862,0.785-2.891,1.744-5.344 c1.996-5.17,5.466-12.517,9.484-19.393c11.577-9.594,24.119-13.316,37.293-13.367c14.339-0.019,29.328,4.61,42.747,11.371 c13.411,6.728,25.233,15.562,33.198,23.327c9.98,9.71,16.238,17.675,20.308,24.532c6.072,10.295,7.52,18.112,8.976,27.545 c1.417,9.355,2.704,20.282,8.725,33.616c6.181,13.772,8.235,24.196,8.247,33.281c0.007,11.474-3.386,21.358-7.552,33.366 c-4.127,11.95-8.859,25.845-10.102,44.163c-1.146,16.76-4.765,28.71-9.664,37.822c-7.347,13.611-17.791,21.402-29.554,28.832 c-8.77,5.569-18.306,10.74-26.817,18.106c0-4.584,0-9.825,0-15.73c9.561-10.624,23.501-26.959,28.929-53.409 c5.254-2.228,10.193-5.57,14.191-11.268c4.726-6.658,8.518-16.001,12.723-30.668c2.363-8.293,3.303-14.815,3.31-20.082 c0.019-7.52-2.029-12.645-4.726-15.775c-1.481-1.732-3-2.723-4.224-3.328l1.147-1.404c1.609-1.977,1.32-4.881-0.651-6.497 c-1.977-1.61-4.88-1.32-6.496,0.65l-13.805,16.869c-0.334-2.118-0.708-4.7-1.114-7.926c-0.354-2.814-0.451-4.54-0.451-6.02 c-0.019-2.633,0.393-5.215,0.47-11.39c0.876,0.18,1.687,0.424,2.601,0.566c2.518,0.393,4.881-1.327,5.274-3.844 c0.392-2.517-1.327-4.88-3.844-5.273c-7.089-1.12-12.221-3.618-16.155-6.786c-5.872-4.752-9.143-11.268-10.926-17.378 c-1.784-6.085-2.015-11.642-2.015-13.901l0.012-0.844l0.006-0.219c0.077-1.223-0.354-2.343-1.082-3.213 c0.824-1.101,1.61-2.228,2.312-3.4c3-4.99,4.797-10.695,4.79-16.76c0.007-4.552-1.005-9.265-3.116-13.952 c-1.05-2.324-3.779-3.361-6.104-2.318c-2.324,1.05-3.361,3.78-2.318,6.104c1.616,3.599,2.305,6.973,2.312,10.166 c-0.007,4.25-1.23,8.248-3.477,12.008c-3.367,5.634-9.143,10.644-16.148,14.172c-6.992,3.534-15.163,5.576-23.063,5.569 c-7.63,0-14.951-1.873-20.99-5.898c-0.612-0.412-1.288-0.605-1.971-0.696c1.745-4.14,3.503-9.246,3.548-14.719 c0.051-4.578-1.5-9.722-5.66-13.496c-1.874-1.726-4.797-1.603-6.522,0.277c-1.726,1.874-1.603,4.797,0.277,6.523 c1.976,1.867,2.627,3.844,2.678,6.696c0.058,4.642-2.524,10.779-4.584,15.118c-0.637,1.404-2.176,3.18-4.591,4.874 c-7.192,5.203-21.402,8.982-32.277,8.912c-5.666,0.045-10.411-1.076-12.446-2.505c-0.219-0.148-0.47-0.18-0.708-0.283 c0.869-1.9,1.706-3.741,2.434-5.441c0.824-1.925,1.532-3.715,2.067-5.422c0.528-1.713,0.927-3.316,0.94-5.126 c-0.007-1.319-0.245-2.897-1.243-4.417c-1.41-2.118-4.275-2.692-6.4-1.274c-1.886,1.255-2.454,3.637-1.584,5.646h-0.006v0.045 c0.012,0.232-0.116,1.14-0.515,2.363c-1.346,4.392-5.409,12.24-9.13,21.222c-3.716,9.04-7.186,19.438-7.205,30.094 c0,4.359,0.638,8.764,2.099,13.045v10.224l-20.906-18.395c-1.913-1.688-4.829-1.5-6.51,0.418c-1.687,1.912-1.5,4.829,0.418,6.51 l3.091,2.717c-0.464,0.405-0.921,0.792-1.378,1.326c-2.698,3.136-4.752,8.261-4.726,15.781c0,5.268,0.947,11.79,3.31,20.082 c4.204,14.667,7.997,24.01,12.723,30.668c3.998,5.698,8.937,9.04,14.191,11.274c5.434,26.443,19.361,42.778,28.929,53.402 c0,4.23,0,8.042,0,11.57C194.977,321.736,190.811,318.105,186.594,315.214z M184.785,114.706v0.007h-0.006L184.785,114.706z M152.681,188.249l0.309,1.481l-0.316-1.481H152.681z M196.703,364.908c3.226-2.601,6.117-5.608,8.299-9.227 c2.176-3.592,3.587-7.881,3.574-12.465h0.831c0-7.694,0-17.308,0-30.494v-2.028l-1.352-1.501 c-9.896-11.01-23.675-26.064-28.401-52.604l-0.534-3.02l-2.891-1.036c-5.254-1.944-8.351-3.76-11.899-8.602 c-3.516-4.88-7.134-13.257-11.165-27.435c-2.17-7.591-2.91-13.193-2.91-17.185c0.026-5.762,1.436-8.009,2.202-8.93l0.838-0.721 l0.064-0.032l-0.54-1.262l26.135,22.998v-32.148l-0.29-0.773c-1.262-3.399-1.809-6.993-1.809-10.759 c-0.032-9.542,3.683-20.102,7.701-29.367c4.675,2.756,10.475,3.645,16.863,3.69c8.538-0.006,18.067-1.758,26.36-4.848 c4.153-1.558,7.991-3.452,11.249-5.756c2.144-1.519,4.03-3.258,5.562-5.241c0.251,0.277,0.477,0.586,0.805,0.805 c7.829,5.215,16.998,7.456,26.116,7.456c12.626-0.019,25.266-4.217,35.052-11.332c0.605-0.438,1.158-0.927,1.738-1.391 c0.335,4.893,1.455,12.485,5.074,20.186c2.402,5.086,5.949,10.231,11.145,14.442c2.569,2.086,5.537,3.914,8.918,5.396 c-0.077,0.322-0.199,0.631-0.199,0.972c0.006,7.115-0.47,9.227-0.49,13.186c0,1.938,0.142,4.121,0.528,7.173 c0.992,7.946,1.835,12.472,2.466,15.163c0.676,2.704,0.979,3.496,1.623,4.488l3.49,4.99l19.368-23.663l-1.204,5.699l0.58-2.769 l-0.824,2.363l-0.128,0.303c0.038,0.038,0.624,0.219,1.378,1.397c0.74,1.185,1.719,3.574,1.725,8.286 c0.007,3.992-0.734,9.594-2.904,17.185c-4.03,14.178-7.649,22.555-11.164,27.435c-3.548,4.842-6.645,6.658-11.906,8.602 l-2.884,1.036l-0.534,3.02c-4.726,26.54-18.512,41.594-28.402,52.604l-1.352,1.501v2.028c0,13.186,0,22.8,0,30.494h0.83 c-0.013,4.584,1.398,8.872,3.573,12.465c3.291,5.422,8.106,9.491,13.374,12.839c2.948,1.86,6.072,3.438,9.233,4.854 c-22.819,25.923-52.914,36.875-80.626,36.9c-8.614,0.007-16.972-1.069-24.763-3.064c-3.245-5.01-8.86-8.345-15.272-8.345 c-1.526,0-2.988,0.245-4.404,0.599c-0.566-0.315-1.172-0.605-1.725-0.934c-10.47-6.155-18.389-14.384-22.864-24.067 C185.847,372.022,191.693,368.926,196.703,364.908z M133.281,388.847c7.688-2.898,15.459-5.099,22.594-7.012 c5.106-1.372,9.832-2.582,14.094-3.844c5.022,11.39,13.779,20.816,24.737,27.86c-1.506,1.906-2.627,4.095-3.278,6.503 l-60.697-22.484C131.582,389.536,132.425,389.169,133.281,388.847z M85.352,464.18c-0.689-0.599-1.075-1.056-1.268-1.32 c-0.226-2.859-0.354-5.622-0.354-8.248c0.026-16.277,4.005-28.17,10.154-37.493c3.303-4.996,7.334-9.278,11.841-13.006 l3.161,13.541c-3.174,3-16.65,17.726-19.631,49.32C87.592,465.931,86.247,464.972,85.352,464.18z M102.125,473.362 c-2.402-0.998-4.584-1.977-6.548-2.942c1.153-16.31,5.176-27.925,9.162-35.652c2.17-4.21,4.301-7.23,5.969-9.297l2.93,12.542 C110.019,442.745,103.554,453.871,102.125,473.362z M108.544,475.872c0.644-12.42,3.425-21.119,6.136-26.83 c0.367-0.773,0.708-1.32,1.069-1.983l7.875,33.746C118.086,479.188,113.051,477.527,108.544,475.872z M130.854,482.787 l-19.368-83.001c1.906-1.288,3.883-2.472,5.898-3.612l3.863,1.436c4.05,16.354,16.438,66.705,20.534,87.895 C137.963,484.623,134.35,483.715,130.854,482.787z M194.359,494.152c-2.82-0.309-5.685-0.598-8.422-0.947l1.481-71.09l4.642,1.719 c1.127,2.814,2.956,5.229,5.242,7.147L194.359,494.152z M259.828,497.449v-19.381h-10.547v19.323 c-17.076-0.193-33.314-1.05-48.355-2.505l2.808-60.44c1.661,0.502,3.386,0.85,5.215,0.85c1.983,0,3.863-0.399,5.646-0.985 c5.499,2.614,12.318,5.641,20.173,8.673c21.1,8.126,49.565,16.31,79.447,16.374l1.629,35.027 C298.608,496.206,279.839,497.32,259.828,497.449z M317.216,448.798h-0.032c-0.895,0.012-1.783,0.019-2.679,0.019 c-28.047,0.019-55.547-7.797-75.938-15.678c-5.344-2.06-10.167-4.115-14.423-6.039c1.623-2.46,2.595-5.357,2.865-8.461 c7.07,1.424,14.436,2.19,21.975,2.19c31.486,0.026,65.927-13.026,91.089-43.468c6.677,2.093,14.66,3.986,23.372,6.497 c2.614,0.746,5.28,1.577,7.952,2.447c-1.906,4.204-5.537,10.591-12.053,16.946c-10.939,10.636-29.817,21.377-63.034,21.415 c-2.183,0-3.953,1.771-3.953,3.954c0,2.183,1.77,3.953,3.953,3.953c35.483,0.039,56.918-11.956,69.138-24.236 c7.327-7.34,11.338-14.602,13.438-19.393c10.006,3.792,19.831,8.737,27.912,15.595c-1.816,2.389-3.676,4.7-5.589,6.876 l-0.051,0.052v0.006c-5.331,6.213-11.107,11.487-17.082,15.956c-16.883,12.542-35.6,18.698-54.613,20.668l-0.077,0.007h0.045 c-4.056,0.444-8.151,0.696-12.156,0.696H317.216z M322.412,493.643l-1.597-34.402c3.11-0.104,6.22-0.29,9.304-0.618l0.728,33.944 C328.078,492.942,325.271,493.302,322.412,493.643z M386.271,481.371c-3.49,0.998-7.173,1.963-11.03,2.917 c2.132-10.811,6.149-28.195,10.154-44.981c1.674-1.108,3.348-2.208,4.983-3.425c2.73-2.041,5.415-4.276,8.062-6.644 L386.271,481.371z M393.547,479.201l7.997-34.28c3.039,4.945,7.031,14.03,8.164,28.498 C405.078,475.332,399.651,477.276,393.547,479.201z M421.034,468.017c-1.449,0.837-3.116,1.7-4.932,2.575 c-2.067-20.372-9.664-30.848-12.581-34.151l2.917-12.51c4.037,4.5,13.624,17.642,16.148,43.152 C422.089,467.393,421.594,467.702,421.034,468.017z M428.11,458.43c-4.301-25.472-15.427-37.788-18.453-40.686 c1.577-1.809,3.136-3.67,4.649-5.615c3.09,3.696,5.82,7.785,7.996,12.498c3.696,8.035,5.962,17.776,5.969,29.985 C428.271,455.829,428.155,457.168,428.11,458.43z"></path> </g> </g></svg>